# xmcd
#
# Track frame offsets:
#	150
#	20066
#	40456
#	63642
#	79087
#	98080
#	110341
#	127943
#	144930
#	162199
#	179854
#	198149
#	215925
#	233159
#	248559
#	267395
#	281135
#	298590
#	315802
#	331784
#
# Disc length: 4675 seconds
#
# Revision: 0
# Processed by: cddbd v1.5.2PL0 Copyright (c) Steve Scherf et al.
# Submitted via: audiograbber 1.83.01
#
DISCID=26124114
DTITLE=Various Artist - Bravo Hits 70 - CD 1
DYEAR=1900
DGENRE=Pop
TTITLE0=Eminem feat. Rihanna  - I Love The Way You Lie
TTITLE1=Yolanda - Be Cool We No Speak Americano
TTITLE2=Israel Kamakawiwo ole - Somewhere Over The Rainbow
TTITLE3=Taio Cruz - Dynamite
TTITLE4=Hurts - Wonderful Life
TTITLE5=Swedish House - Mafia
TTITLE6=Florida feat. David Guetta - Club Can't Handle Me
TTITLE7=Katy Perry - Teenage Dream
TTITLE8=Madcon - Glow
TTITLE9=Ich and Ich - Universum
TTITLE10=Lady Gaga - Alejandro
TTITLE11=Enrique Iglesias feat. Pitbull - I Like It
TTITLE12=Juli - Elektrisches Gefühl
TTITLE13=Shakira feat. Freshly Ground - Waka waka
TTITLE14=Edward Maya feat. Vika Jiqulina - Stereo Love
TTITLE15=BoB feat. Haley Williams - Airplanes
TTITLE16=Linkin Park - The Catalyst
TTITLE17=Unheilig - Geboren um zu leben
TTITLE18=Plan B - She Said
TTITLE19=Ne-Yo - Beautiful Monster
EXTD=
EXTT0=
EXTT1=
EXTT2=
EXTT3=
EXTT4=
EXTT5=
EXTT6=
EXTT7=
EXTT8=
EXTT9=
EXTT10=
EXTT11=
EXTT12=
EXTT13=
EXTT14=
EXTT15=
EXTT16=
EXTT17=
EXTT18=
EXTT19=
PLAYORDER=
